# xmcd
#
# Track frame offsets: 
#        150
#        14322
#        26885
#        40015
#        51680
#        66485
#
# Disc length: 1057 seconds
#
# Revision: 0
# Processed by: cddbd v1.4PL0 Copyright (c) Steve Scherf et al.
# Submitted via: ExactAudioCopy v0.90b2
#
DISCID=54041f06
DTITLE=Lacy J. Dalton - Something Special
DYEAR=1900
DGENRE=Country
TTITLE0=16Th Avenue
TTITLE1=Honk Tonk Man
TTITLE2=Dream Baby (How Long Must I Dream)
TTITLE3=Hard Times
TTITLE4=Are There Any Cowboys Left (In The Good Ol' U.S.A.?)
TTITLE5=If That Ain't Love
EXTD=
EXTT0=
EXTT1=
EXTT2=
EXTT3=
EXTT4=
EXTT5=
PLAYORDER=
